<?xml version="1.0" standalone="no"?><!DOCTYPE svg PUBLIC "-//W3C//DTD SVG 1.1//EN" "http://www.w3.org/Graphics/SVG/1.1/DTD/svg11.dtd"><svg t="1572161507363" class="icon" viewBox="0 0 1024 1024" version="1.1" xmlns="http://www.w3.org/2000/svg" p-id="29618" xmlns:xlink="http://www.w3.org/1999/xlink" width="300" height="300"><defs><style type="text/css"></style></defs><path d="M773.7344 592.2816c-1.9456-1.536-4.3008-3.072-7.0656-4.7104-11.6736-4.3008-21.1968-11.264-28.3648-21.2992s-10.752-21.504-10.752-34.816c0-13.7216 4.3008-25.8048 13.0048-36.864 8.6016-10.6496 18.944-18.1248 30.9248-22.4256 3.072-1.1264 6.0416-3.584 9.0112-7.2704 2.8672-3.6864 3.8912-8.8064 3.1744-15.4624-1.536-11.264-4.5056-22.528-9.0112-33.5872-4.5056-11.1616-9.6256-19.456-15.4624-24.7808-3.072-3.072-6.7584-4.8128-11.264-5.2224-4.4032-0.512-8.192 0.3072-11.264 2.2528-11.6736 5.5296-24.3712 7.68-37.888 6.7584-13.6192-1.024-25.088-6.144-34.4064-15.4624-9.216-9.216-14.9504-20.1728-16.896-32.6656-1.9456-12.4928-0.512-24.3712 4.608-35.6352 0.8192-1.4336 1.6384-4.1984 2.3552-7.8848 0.7168-3.7888 0.2048-7.168-1.8432-10.24-3.072-5.0176-7.3728-9.6256-12.4928-14.0288-5.2224-4.3008-10.9568-7.68-17.2032-10.4448-6.2464-2.6624-12.4928-4.8128-18.944-6.3488-6.4512-1.4336-12.4928-2.2528-17.8176-2.2528-3.4816 0-6.8608 1.7408-10.1376 5.0176-3.3792 3.3792-5.8368 6.5536-7.3728 9.6256-4.3008 11.776-11.6736 21.4016-22.1184 28.9792-10.5472 7.5776-22.6304 11.3664-36.2496 11.3664-13.2096 0-24.7808-3.9936-34.4064-11.9808-9.728-7.8848-16.7936-17.2032-21.0944-27.648-1.1264-3.4816-3.1744-6.8608-6.144-10.24s-6.8608-5.0176-11.9808-5.0176c-3.8912 0-9.216 0.7168-15.7696 2.048-6.7584 1.4336-13.4144 3.3792-20.48 6.144s-13.5168 6.144-19.5584 10.24c-6.0416 4.096-10.24 8.9088-12.4928 14.336-1.1264 2.2528-1.4336 5.0176-0.9216 8.0896 0.6144 3.072 1.3312 5.8368 2.1504 8.192 0.4096 2.3552 0.9216 6.3488 1.4336 11.6736 0.512 5.5296 0.512 11.4688 0 18.1248-0.6144 6.5536-1.9456 13.312-4.096 20.1728-2.2528 6.8608-5.5296 12.4928-10.24 17.2032-9.8304 9.3184-20.992 14.848-33.5872 16.5888-12.6976 1.7408-24.7808 0.2048-36.4544-4.4032-3.4816-1.1264-6.7584-1.8432-9.6256-2.2528-2.8672-0.512-5.9392 0.3072-9.0112 2.2528-3.8912 2.3552-7.5776 5.9392-10.8544 10.8544-3.3792 4.9152-6.3488 10.24-8.8064 16.0768-2.56 5.9392-4.608 11.9808-6.144 18.2272-1.536 6.2464-2.3552 11.776-2.3552 16.896 0 4.608 1.2288 9.216 3.4816 13.7216 2.3552 4.5056 5.2224 7.3728 8.8064 8.4992 11.6736 4.608 22.1184 12.0832 31.4368 22.1184 9.3184 10.1376 14.0288 22.016 14.0288 35.6352 0 13.2096-4.7104 25.1904-14.0288 35.84-9.3184 10.8544-19.8656 18.432-31.4368 23.1424-6.656 2.3552-10.4448 7.7824-11.6736 16.384-0.8192 4.7104-0.4096 10.5472 1.1264 17.8176 1.536 7.168 3.7888 14.2336 6.7584 21.0944 2.8672 6.7584 6.144 13.0048 9.9328 18.6368 3.6864 5.632 7.68 9.216 11.9808 10.8544 5.4272 2.3552 10.8544 2.6624 16.2816 1.2288 8.4992-2.6624 16.9984-4.3008 25.088-4.7104 6.8608-0.4096 14.336 0.2048 22.1184 2.048 7.7824 1.8432 14.4384 5.5296 19.8656 11.3664 8.9088 9.728 13.9264 20.3776 14.9504 31.8464 1.024 11.4688-0.7168 21.6064-5.0176 30.6176-3.1744 6.656-4.608 11.776-4.4032 15.4624 0.2048 3.6864 1.2288 6.7584 3.1744 9.6256 2.6624 3.8912 6.7584 7.8848 12.1856 11.6736 5.5296 3.8912 11.6736 7.3728 18.432 10.24 6.8608 2.8672 13.7216 5.2224 20.48 7.2704 6.7584 1.8432 12.9024 2.8672 18.3296 2.8672 4.7104 0 9.0112-1.024 12.9024-3.1744 3.8912-2.2528 6.7584-5.5296 8.8064-10.24 4.3008-11.6736 11.776-21.9136 22.4256-30.6176 10.752-8.8064 22.6304-13.2096 35.84-13.2096 13.7216 0 25.6 4.4032 35.84 13.2096 10.24 8.8064 17.6128 19.2512 21.9136 31.3344h0.512c1.2288 3.072 3.2768 5.9392 6.3488 8.8064 3.072 2.7648 6.3488 4.096 9.9328 4.096 5.12 0 10.8544-0.7168 17.5104-2.2528 6.656-1.4336 12.9024-3.584 18.944-6.3488 5.9392-2.6624 11.4688-5.7344 16.5888-9.1136 5.12-3.1744 8.8064-6.4512 11.1616-9.6256 5.12-7.8848 5.5296-15.6672 1.7408-23.4496-5.12-11.264-6.7584-23.1424-5.2224-35.6352 1.536-12.4928 6.9632-23.552 16.2816-33.28 4.3008-4.7104 9.4208-7.9872 15.4624-10.0352 5.9392-1.9456 11.9808-3.2768 18.0224-3.7888 6.0416-0.6144 12.0832-0.4096 17.8176 0.6144 5.8368 1.024 10.752 2.048 14.5408 3.1744 4.3008 1.536 8.0896 2.2528 11.6736 2.2528 3.4816 0 7.5776-1.1264 12.1856-3.4816 4.7104-2.3552 9.0112-6.3488 12.9024-11.6736 3.8912-5.5296 7.168-11.6736 9.9328-18.432 2.6624-6.7584 4.7104-13.5168 5.8368-20.1728 1.024-6.5536 1.3312-12.1856 0.6144-16.896-1.6384-5.632-4.5056-10.1376-8.4992-13.5168z m-157.184-16.9984c-5.9392 13.824-14.0288 25.9072-24.3712 36.4544-10.4448 10.4448-22.528 18.7392-36.4544 24.6784-14.1312 5.9392-28.8768 9.0112-44.6464 9.0112-15.7696 0-30.6176-3.072-44.3392-8.9088-13.824-5.9392-25.9072-14.1312-36.2496-24.6784-10.3424-10.4448-18.432-22.7328-24.3712-36.4544-5.9392-13.824-8.9088-28.672-8.9088-44.4416 0-15.7696 3.072-30.6176 8.9088-44.3392 5.9392-13.824 14.1312-25.9072 24.3712-36.2496 10.24-10.4448 22.3232-18.5344 36.2496-24.4736 13.824-6.0416 28.5696-9.0112 44.3392-9.0112 15.7696 0 30.72 2.9696 44.6464 9.0112 14.0288 5.9392 26.2144 14.1312 36.4544 24.3712 10.3424 10.3424 18.432 22.4256 24.3712 36.2496 5.9392 13.824 8.9088 28.5696 8.9088 44.3392 0 15.7696-2.9696 30.6176-8.9088 44.4416z" fill="#ffffff" p-id="29619"></path></svg>