<?xml version="1.0" standalone="no"?><!DOCTYPE svg PUBLIC "-//W3C//DTD SVG 1.1//EN" "http://www.w3.org/Graphics/SVG/1.1/DTD/svg11.dtd"><svg t="1571799366740" class="icon" viewBox="0 0 1024 1024" version="1.1" xmlns="http://www.w3.org/2000/svg" p-id="38090" xmlns:xlink="http://www.w3.org/1999/xlink" width="200" height="200"><defs><style type="text/css"></style></defs><path d="M343.463339 935.338534c-3.99376 0-7.98752-1.597504-11.182528-3.99376h-0.798752c-47.925117-41.535101-75.082683-101.441498-75.082683-165.341654 0-120.611544 98.24649-219.656786 218.858034-219.656786s218.858034 98.24649 218.858035 219.656786c0 62.302652-26.358814 121.410296-72.686428 162.945398-3.195008 3.195008-8.786271 3.99376-11.981279 3.99376-5.591264 0-9.585023-2.396256-11.981279-4.792512l-0.798752-0.798752-0.798752-0.798752c-3.195008-3.195008-5.591264-8.786271-4.792512-13.578783 0-4.792512 2.396256-9.585023 5.591264-12.780031 38.340094-35.145086 60.705148-83.868955 60.705148-135.787832 0-47.925117-18.371295-94.25273-52.717629-128.599064-34.346334-35.145086-79.875195-53.516381-128.599064-53.51638-100.642746 0-182.914197 82.271451-182.914196 182.914196 0 52.717629 23.163807 102.24025 62.302652 137.385336 7.98752 6.390016 8.786271 17.572543 1.597504 25.560062-2.396256 4.792512-7.188768 7.188768-13.578783 7.188768z m429.728549-351.450858c-86.265211 0-156.555382-70.290172-156.555383-156.555383s70.290172-156.555382 156.555383-156.555382c85.466459 0 155.75663 70.290172 155.75663 156.555382-0.798752 87.063963-70.290172 156.555382-155.75663 156.555383z m0-275.569423c-65.49766 0-119.812793 53.516381-119.812793 119.812792s53.516381 119.812793 119.812793 119.812793 119.812793-53.516381 119.812792-119.812793-54.315133-119.812793-119.812792-119.812792zM513.597504 199.687988c-47.126365 0-84.667707-38.340094-84.667707-84.667707S466.471139 30.352574 513.597504 30.352574s84.667707 38.340094 84.667707 84.667707-37.541342 84.667707-84.667707 84.667707z m0-133.391576c-26.358814 0-47.925117 21.566303-47.925117 47.925117s21.566303 47.925117 47.925117 47.925117 47.925117-21.566303 47.925117-47.925117-21.566303-47.925117-47.925117-47.925117z" p-id="38091"></path><path d="M476.854914 865.847114c-55.113885 0-99.843994-44.730109-99.843994-99.843994s44.730109-99.843994 99.843994-99.843994 99.843994 44.730109 99.843994 99.843994c-0.798752 55.113885-45.528861 99.843994-99.843994 99.843994z m0-162.945398c-34.346334 0-63.101404 27.956318-63.101404 63.101404s27.956318 63.101404 63.101404 63.101404 63.101404-27.956318 63.101404-63.101404c-0.798752-34.346334-29.553822-63.101404-63.101404-63.101404zM677.341654 784.374415c-3.195008 0-5.591264-0.798752-7.188768-1.597504l-2.396256-0.798752-0.798752-0.798752c-3.99376-2.396256-7.188768-7.188768-7.188767-11.981279-0.798752-4.792512 0.798752-9.585023 3.195008-13.578783l147.76911-210.071763c3.99376-4.792512 9.585023-7.98752 15.176287-7.98752 3.195008 0 5.591264 0.798752 7.188768 1.597504l2.396256 0.798752 0.798752 0.798752c3.99376 2.396256 7.188768 7.188768 7.188767 11.981279 0.798752 4.792512-0.798752 9.585023-3.195008 13.578784L692.517941 776.386895c-3.195008 5.591264-8.786271 7.98752-15.176287 7.98752zM398.577223 598.265211c-4.792512 0-10.383775-2.396256-14.377535-6.390016l-0.798752-0.798752c-2.396256-3.99376-3.99376-7.98752-3.99376-11.981279 0-5.591264 2.396256-10.383775 7.188768-13.578783l235.631825-185.310453c3.99376-2.396256 7.98752-3.99376 11.182527-3.99376 4.792512 0 10.383775 2.396256 14.377536 6.390016l0.798751 0.798752 0.798752 0.798752c2.396256 3.99376 3.99376 7.98752 3.99376 11.981279 0 5.591264-2.396256 10.383775-7.188767 13.578783L409.75975 594.271451c-3.99376 3.195008-7.98752 3.99376-11.182527 3.99376z m374.614665-103.837754c-36.74259 0-67.095164-30.352574-67.095164-67.095164s30.352574-67.095164 67.095164-67.095164 67.095164 30.352574 67.095163 67.095164-30.352574 67.095164-67.095163 67.095164z m0-96.648986c-16.773791 0-29.553822 13.578783-29.553822 29.553822s13.578783 29.553822 29.553822 29.553822c16.773791 0 29.553822-13.578783 29.553822-29.553822s-13.578783-29.553822-29.553822-29.553822z m75.881435-194.096724c-49.522621 0-89.460218-39.937598-89.460218-89.460218C759.613105 65.49766 799.550702 25.560062 849.073323 25.560062s89.460218 39.937598 89.460218 89.460219c0 48.723869-39.937598 88.661466-89.460218 88.661466z m0-141.379095c-28.75507 0-52.717629 23.962559-52.717629 52.717629s23.962559 52.717629 52.717629 52.717629c28.75507 0 52.717629-23.962559 52.717629-52.717629 0-28.75507-23.962559-52.717629-52.717629-52.717629z" p-id="38092"></path><path d="M898.595944 391.388456c-10.383775 0-18.371295-7.98752-18.371295-19.170047l13.578783-222.851794c0-9.585023 7.98752-17.572543 18.371295-17.572543 5.591264 0 10.383775 2.396256 13.578783 6.390015 3.195008 3.99376 4.792512 8.786271 3.99376 13.578784l-13.578783 222.053042c0.798752 10.383775-7.188768 17.572543-17.572543 17.572543zM727.663027 308.318253c-3.99376 0-7.98752-1.597504-8.786272-2.396256h-1.597504c-3.99376-2.396256-6.390016-6.390016-7.987519-10.383775-1.597504-4.792512-0.798752-10.383775 1.597504-14.377536l65.497659-115.02028c2.396256-5.591264 9.585023-9.585023 15.975039-9.585024 3.99376 0 7.98752 1.597504 8.786272 2.396256h1.597504c3.99376 2.396256 6.390016 6.390016 7.987519 10.383775 1.597504 4.792512 0.798752 10.383775-1.597504 14.377536L743.638066 298.733229c-3.99376 6.390016-9.585023 9.585023-15.975039 9.585024zM567.113885 88.661466c-9.585023 0-18.371295-7.98752-18.371295-18.371294 0-9.585023 7.98752-18.371295 18.371295-18.371295h211.669266c9.585023 0 18.371295 7.98752 18.371295 18.371295 0 9.585023-7.98752 18.371295-18.371295 18.371294H567.113885z" p-id="38093"></path><path d="M583.088924 164.542902c-9.585023 0-18.371295-7.98752-18.371295-18.371295 0-9.585023 7.98752-18.371295 18.371295-18.371295h188.50546c9.585023 0 18.371295 7.98752 18.371295 18.371295 0 9.585023-7.98752 18.371295-18.371295 18.371295H583.088924zM372.218409 129.397816c-9.585023 0-18.371295-7.98752-18.371295-18.371295 0-9.585023 7.98752-18.371295 18.371295-18.371295h67.095164c9.585023 0 18.371295 7.98752 18.371294 18.371295 0 9.585023-7.98752 18.371295-18.371294 18.371295h-67.095164z" p-id="38094"></path><path d="M100.642746 1022.402496c-9.585023 0-18.371295-7.98752-18.371295-18.371295v-84.667706c0-9.585023 7.98752-18.371295 18.371295-18.371295h756.418096c9.585023 0 18.371295 7.98752 18.371295 18.371295v84.667706c0 9.585023-7.98752 18.371295-18.371295 18.371295H100.642746z m737.24805-37.541342V936.137285h-718.876755v48.723869h718.876755zM277.965679 226.845554c-24.76131 0-47.925117-7.98752-68.692668-22.365055-4.792512-3.195008-7.188768-7.98752-7.188768-13.578783 0-3.99376 0-8.786271 4.792512-13.578783 3.195008-3.195008 7.188768-6.390016 14.377535-6.390016 3.99376 0 8.786271 1.597504 11.182527 3.99376 14.377535 10.383775 29.553822 15.176287 46.327614 15.176287 42.333853 0 75.881435-34.346334 75.881435-75.881435 0-42.333853-35.145086-77.478939-76.680187-77.478939-18.371295 0-35.145086 5.591264-48.723869 16.773791-3.99376 3.99376-8.786271 3.99376-11.182528 3.993759-5.591264 0-11.182527-3.195008-14.377535-7.188767-2.396256-3.99376-3.99376-7.98752-3.993759-11.981279 0-5.591264 2.396256-10.383775 7.188767-13.578784 19.968799-16.773791 44.730109-24.76131 71.887676-24.76131C341.067083 0 392.187207 51.120125 392.187207 113.422777c-1.597504 62.302652-52.717629 113.422777-114.221528 113.422777z" p-id="38095"></path></svg>