<?xml version="1.0" standalone="no"?><!DOCTYPE svg PUBLIC "-//W3C//DTD SVG 1.1//EN" "http://www.w3.org/Graphics/SVG/1.1/DTD/svg11.dtd"><svg t="1572161592511" class="icon" viewBox="0 0 1024 1024" version="1.1" xmlns="http://www.w3.org/2000/svg" p-id="30438" xmlns:xlink="http://www.w3.org/1999/xlink" width="300" height="300"><defs><style type="text/css"></style></defs><path d="M800.3 221.4h90.2v507.2h-90.2zM135 221.4h90.2v507.2H135zM285 234.8v476.1h455.5V234.8H285z m213.7 375.5l-47.3-37.1 72.2-78.4-159.8 1.7L537 328.4l45.7 39.4-70 71.2 144.3 1.1-158.3 170.2z" fill="#ffffff" p-id="30439"></path><path d="M693 896.5H550.9c-59.1 0-107.2-53.6-107.2-119.5V650h112v127c0 3.3 0.7 5.8 1.3 7.5h136v112z" fill="#ffffff" p-id="30440"></path><path d="M578.6 127.5h118.7v142.2H578.6zM328.2 127.5H447v142.2H328.2z" fill="#ffffff" p-id="30441"></path></svg>