<?xml version="1.0" standalone="no"?><!DOCTYPE svg PUBLIC "-//W3C//DTD SVG 1.1//EN" "http://www.w3.org/Graphics/SVG/1.1/DTD/svg11.dtd"><svg t="1571225643017" class="icon" viewBox="0 0 1024 1024" version="1.1" xmlns="http://www.w3.org/2000/svg" p-id="5258" xmlns:xlink="http://www.w3.org/1999/xlink" width="300" height="300"><defs><style type="text/css"></style></defs><path d="M85.333333 85.333333v853.333334h853.333334V85.333333H85.333333z m85.333334 85.333334h529.066666v55.466666c0 29.866667-25.6 55.466667-55.466666 55.466667h-93.866667v110.933333l-38.4 8.533334c-102.4 17.066667-183.466667 115.2-183.466667 217.6C320 725.333333 238.933333 810.666667 170.666667 810.666667V170.666667z m691.2 691.2H251.733333c55.466667-29.866667 102.4-85.333333 123.733334-149.333334h486.4v149.333334z m0-221.866667h-469.333334v-17.066667c0-68.266667 55.466667-132.266667 123.733334-145.066666l38.4-8.533334h311.466666v170.666667z m0-243.2h-243.2v-38.4h21.333333c72.533333 0 132.266667-59.733333 132.266667-132.266667V162.133333h89.6v234.666667z" p-id="5259" fill="#ffffff"></path></svg>