<?xml version="1.0" standalone="no"?><!DOCTYPE svg PUBLIC "-//W3C//DTD SVG 1.1//EN" "http://www.w3.org/Graphics/SVG/1.1/DTD/svg11.dtd"><svg t="1572161397164" class="icon" viewBox="0 0 1024 1024" version="1.1" xmlns="http://www.w3.org/2000/svg" p-id="24086" xmlns:xlink="http://www.w3.org/1999/xlink" width="300" height="300"><defs><style type="text/css"></style></defs><path d="M256 0m42.666667 0l426.666666 0q42.666667 0 42.666667 42.666667l0 106.666666q0 42.666667-42.666667 42.666667l-426.666666 0q-42.666667 0-42.666667-42.666667l0-106.666666q0-42.666667 42.666667-42.666667Z" fill="#ffffff" p-id="24087"></path><path d="M682.666667 569.493333L341.333333 612.544v-110.72l341.333334-43.050667v110.72z m0 96.853334v173.056a42.666667 42.666667 0 0 1-12.906667 30.592l-128 124.544a42.666667 42.666667 0 0 1-59.52 0l-128-124.544A42.666667 42.666667 0 0 1 341.333333 839.402667v-129.984l341.333334-43.050667z m0-304.426667L341.333333 404.949333V277.333333a42.666667 42.666667 0 0 1 42.666667-42.666666h256a42.666667 42.666667 0 0 1 42.666667 42.666666v84.565334z" fill="#ffffff" p-id="24088"></path></svg>