<?xml version="1.0" standalone="no"?><!DOCTYPE svg PUBLIC "-//W3C//DTD SVG 1.1//EN" "http://www.w3.org/Graphics/SVG/1.1/DTD/svg11.dtd"><svg t="1571798622722" class="icon" viewBox="0 0 1360 1024" version="1.1" xmlns="http://www.w3.org/2000/svg" p-id="16231" xmlns:xlink="http://www.w3.org/1999/xlink" width="265.625" height="200"><defs><style type="text/css"></style></defs><path d="M492.95596666 464.06850012h78.79474499v279.72134309a24.51392029 24.51392029 0 0 0 24.95166866 24.51392028h310.80149256a24.51392029 24.51392029 0 0 0 24.95166865-24.51392028V464.06850012h78.79474499a24.51392029 24.51392029 0 0 0 24.51392028-24.95166864V287.21807398a24.51392029 24.51392029 0 0 0-24.95166863-24.51392106h-154.96299755a23.63842358 23.63842358 0 0 0-18.82318934 7.00397755 21.44968025 21.44968025 0 0 0-6.12848007 17.07219437c0 9.63046847-20.57418354 26.70266362-78.79474423 26.70266363s-76.60600167-17.07219438-78.79474499-26.70266363a21.44968025 21.44968025 0 0 0-6.12848008-17.07219437 23.63842358 23.63842358 0 0 0-18.82318857-7.00397755H492.95596666a24.95166941 24.95166941 0 0 0-26.26491448 24.51392105v151.89875751a24.51392029 24.51392029 0 0 0 26.26491449 24.95166864z m24.95166942-152.33650585h112.93913375c11.38146343 21.88742938 41.58611543 50.77883555 121.6941055 50.77883554S860.66477485 335.37041785 873.35948335 311.73199427h112.93913374v102.87091616h-78.79474422a24.51392029 24.51392029 0 0 0-24.95166941 24.51392105v279.72134309h-262.64914794V439.11683148a24.51392029 24.51392029 0 0 0-21.88742938-24.51392106H517.46988773zM335.36647821 123.06235632v784.44545618h831.72230255V123.06235632z m780.50571866 735.41761483H386.58306212V172.52794526h731.04012971zM247.81676146 165.96171683A24.51392029 24.51392029 0 1 0 247.81676146 116.49612713H141.44385691A24.51392029 24.51392029 0 0 0 116.4921875 141.01004742v735.41761559a24.95166941 24.95166941 0 0 0 24.95166941 24.51392107H247.81676146a24.51392029 24.51392029 0 1 0 0-49.02784136H165.9577772v-191.73387797H247.81676146a24.51392029 24.51392029 0 1 0 0-49.46558971H165.9577772V406.72343615H247.81676146A24.51392029 24.51392029 0 1 0 247.81676146 357.25784645H165.9577772V165.96171683z" p-id="16232"></path></svg>