<?xml version="1.0" standalone="no"?><!DOCTYPE svg PUBLIC "-//W3C//DTD SVG 1.1//EN" "http://www.w3.org/Graphics/SVG/1.1/DTD/svg11.dtd"><svg t="1572159873724" class="icon" viewBox="0 0 1024 1024" version="1.1" xmlns="http://www.w3.org/2000/svg" p-id="5298" xmlns:xlink="http://www.w3.org/1999/xlink" width="300" height="300"><defs><style type="text/css"></style></defs><path d="M562.65728 73.4848l383.08352 238.71488c13.50144 8.46336 21.9392 23.70048 21.9392 40.06656v566.47424c0 26.5216-21.376 47.40352-47.25248 47.40352H108.69248C82.2528 966.144 61.44 944.69888 61.44 918.74048V352.832c0-16.36608 8.43776-31.6032 21.9392-40.06912l377.4592-239.84384c30.94016-18.62144 70.87872-18.62144 101.81888 0.5632zM202.92608 554.368c-12.81024 0-23.39328 10.73664-23.39328 23.7312v98.88c0 12.99456 10.58304 23.7312 23.39328 23.7312h117.51936c12.81024 0 23.39328-10.73664 23.39328-23.7312V578.0992c0-12.99456-10.58304-23.7312-23.39328-23.7312H202.92608z m0 197.68832c-12.81024 0-23.39328 10.73664-23.39328 23.7312v102.1312a20.48 20.48 0 0 0 20.48 20.48h123.34592a20.48 20.48 0 0 0 20.48-20.48v-102.1312c0-12.99456-10.58304-23.7312-23.39328-23.7312H202.92608z m249.024-197.68832c-12.81024 0-23.39328 10.73664-23.39328 23.7312v98.88c0 12.99456 10.58304 23.7312 23.39328 23.7312h117.51936c12.81024 0 23.39072-10.73664 23.39072-23.7312V578.0992c0-12.99456-10.58048-23.7312-23.39072-23.7312h-117.51936z m0-197.68576c-12.81024 0-23.39328 10.73408-23.39328 23.7312v98.87744c0 12.99456 10.58304 23.7312 23.39328 23.7312h117.51936c12.81024 0 23.39072-10.73664 23.39072-23.7312v-98.88c0-12.99456-10.58048-23.7312-23.39072-23.7312h-117.51936z m0 395.37408c-12.81024 0-23.39328 10.73664-23.39328 23.7312v102.1312a20.48 20.48 0 0 0 20.48 20.48h123.34336a20.48 20.48 0 0 0 20.48-20.48v-102.1312c0-12.99456-10.58048-23.7312-23.39072-23.7312h-117.51936z m228.1984 23.7312v102.1312a20.48 20.48 0 0 0 20.48 20.48h123.34336a20.48 20.48 0 0 0 20.48-20.48v-102.1312c0-12.99456-10.58304-23.7312-23.39328-23.7312H703.5392c-12.81024 0-23.39072 10.73664-23.39072 23.7312z" p-id="5299"></path></svg>