<?xml version="1.0" standalone="no"?><!DOCTYPE svg PUBLIC "-//W3C//DTD SVG 1.1//EN" "http://www.w3.org/Graphics/SVG/1.1/DTD/svg11.dtd"><svg t="1572160362131" class="icon" viewBox="0 0 1024 1024" version="1.1" xmlns="http://www.w3.org/2000/svg" p-id="10557" xmlns:xlink="http://www.w3.org/1999/xlink" width="300" height="300"><defs><style type="text/css"></style></defs><path d="M0 752.64c35.84 35.84 197.12 102.4 522.24 102.4 345.6 0 465.92-76.8 501.76-107.52-10.24-5.12-25.6-5.12-51.2-10.24-20.48-5.12-35.84-25.6-35.84-46.08-5.12-97.28-40.96-389.12-253.44-471.04v263.68c0 25.6-20.48 46.08-46.08 46.08s-46.08-20.48-46.08-46.08V189.44c-20.48-10.24-46.08-20.48-71.68-20.48S460.8 179.2 435.2 189.44l5.12 289.28c0 25.6-20.48 46.08-46.08 46.08s-46.08-20.48-46.08-46.08V220.16c-151.04 66.56-238.08 284.16-243.2 476.16 0 25.6-20.48 40.96-40.96 40.96-23.04 5.12-53.76 10.24-64 15.36z" fill="#ffffff" p-id="10558"></path></svg>