<?xml version="1.0" standalone="no"?><!DOCTYPE svg PUBLIC "-//W3C//DTD SVG 1.1//EN" "http://www.w3.org/Graphics/SVG/1.1/DTD/svg11.dtd"><svg t="1571798691344" class="icon" viewBox="0 0 1024 1024" version="1.1" xmlns="http://www.w3.org/2000/svg" p-id="17396" xmlns:xlink="http://www.w3.org/1999/xlink" width="200" height="200"><defs><style type="text/css"></style></defs><path d="M930.4 497.4c0-44.7-29-82.7-69.1-96.3V293.4c0-39.2-31.9-71-71-71h-83.4c-37 0-67.4 28.4-70.7 64.5-29.2-31.2-70.8-50.7-116.8-50.7-44.2 0-84.3 18-113.3 47.1v-61.4c0-64.8-52.7-117.5-117.5-117.5s-117.5 52.7-117.5 117.5v173.9C115.3 396.1 70 441.5 70 497.4c0 42.3 26 78.6 62.8 93.9v206.2c0 68.9 56.1 125 125 125h478.1c68.9 0 125-56.1 125-125V593.8c40.2-13.4 69.5-51.6 69.5-96.4z m-223.6-225h83.4c11.6 0 21 9.4 21 21v102.4H685.7V293.4c0-11.6 9.5-21 21.1-21z m-187.6 13.8c60.5 0 109.8 49.1 110.1 109.6H409.2c0.3-60.5 49.5-109.6 110-109.6zM288.4 154.3c37.2 0 67.5 30.3 67.5 67.5v173.9h-135V221.9c0-37.3 30.3-67.6 67.5-67.6z m447.3 718.2H257.6c-41.4 0-75-33.6-75-75V598.9h628.1v198.5c0 41.4-33.6 75.1-75 75.1z m93.1-323.6H171.4c-28.4 0-51.6-23.1-51.6-51.6 0-28.4 23.1-51.6 51.6-51.6h657.4c28.4 0 51.6 23.1 51.6 51.6s-23.2 51.6-51.6 51.6z" p-id="17397"></path></svg>