<?xml version="1.0" standalone="no"?><!DOCTYPE svg PUBLIC "-//W3C//DTD SVG 1.1//EN" "http://www.w3.org/Graphics/SVG/1.1/DTD/svg11.dtd"><svg t="1571799620885" class="icon" viewBox="0 0 1024 1024" version="1.1" xmlns="http://www.w3.org/2000/svg" p-id="42374" xmlns:xlink="http://www.w3.org/1999/xlink" width="200" height="200"><defs><style type="text/css"></style></defs><path d="M788.48 58.514286s1.462857 0 2.925714 2.925714l172.617143 294.034286c2.925714 4.388571 2.925714 10.24 0 13.165714L514.925714 962.56c-1.462857 2.925714-2.925714 2.925714-2.925714 2.925714s-1.462857 0-2.925714-2.925714L59.977143 368.64c-1.462857-4.388571-2.925714-10.24 0-13.165714L232.594286 61.44c1.462857-2.925714 2.925714-2.925714 2.925714-2.925714h552.96m0-29.257143H235.52c-11.702857 0-21.942857 5.851429-27.794286 17.554286l-172.617143 292.571428c-8.777143 13.165714-7.314286 32.182857 1.462858 45.348572L485.668571 980.114286c5.851429 8.777143 16.091429 14.628571 26.331429 14.628571s20.48-5.851429 26.331429-14.628571l449.097142-595.382857c8.777143-13.165714 10.24-30.72 1.462858-45.348572l-172.617143-292.571428c-5.851429-11.702857-17.554286-17.554286-27.794286-17.554286z" p-id="42375"></path><path d="M686.08 413.988571h-336.457143L55.588571 373.028571l4.388572-29.257142 292.571428 40.96h332.068572l285.257143-40.96 4.388571 29.257142z" p-id="42376"></path><path d="M462.262857 936.228571c-7.314286 0-13.165714-4.388571-14.628571-11.702857l-100.937143-523.702857L219.428571 62.902857c-2.925714-7.314286 1.462857-16.091429 8.777143-19.017143 7.314286-2.925714 16.091429 1.462857 19.017143 8.777143l130.194286 340.845714 100.937143 525.165715c1.462857 7.314286-4.388571 16.091429-11.702857 17.554285h-4.388572zM560.274286 936.228571h-2.925715c-7.314286-1.462857-13.165714-8.777143-11.702857-17.554285l99.474286-528.091429 128.731429-337.92c2.925714-7.314286 11.702857-11.702857 19.017142-8.777143 7.314286 2.925714 11.702857 11.702857 8.777143 19.017143l-128.731428 336.457143-98.011429 523.702857c-1.462857 8.777143-7.314286 13.165714-14.628571 13.165714z" p-id="42377"></path><path d="M370.102857 413.988571c-1.462857 0-4.388571 0-5.851428-1.462857-7.314286-2.925714-11.702857-11.702857-7.314286-19.017143l141.897143-345.234285c2.925714-7.314286 11.702857-11.702857 19.017143-7.314286 7.314286 2.925714 11.702857 11.702857 7.314285 19.017143l-141.897143 345.234286c-1.462857 5.851429-7.314286 8.777143-13.165714 8.777142z" p-id="42378"></path><path d="M658.285714 411.062857c-5.851429 0-11.702857-2.925714-13.165714-8.777143L514.925714 58.514286c-2.925714-7.314286 1.462857-16.091429 8.777143-19.017143 7.314286-2.925714 16.091429 1.462857 19.017143 8.777143L672.914286 390.582857c2.925714 7.314286-1.462857 16.091429-8.777143 19.017143-1.462857 1.462857-2.925714 1.462857-5.851429 1.462857z" p-id="42379"></path></svg>