<?xml version="1.0" standalone="no"?><!DOCTYPE svg PUBLIC "-//W3C//DTD SVG 1.1//EN" "http://www.w3.org/Graphics/SVG/1.1/DTD/svg11.dtd"><svg t="1571225691626" class="icon" viewBox="0 0 1170 1024" version="1.1" xmlns="http://www.w3.org/2000/svg" p-id="6794" xmlns:xlink="http://www.w3.org/1999/xlink" width="342.7734375" height="300"><defs><style type="text/css"></style></defs><path d="M511.612934 439.4493A170.596353 170.596353 0 1 1 341.162865 263.323414a173.463518 173.463518 0 0 1 170.450069 176.125886z m0 0A170.596353 170.596353 0 1 1 341.162865 263.323414a173.463518 173.463518 0 0 1 170.450069 176.125886zM777.176833 7.619054l-345.230143 214.159716a220.391412 220.391412 0 0 0-90.871596-19.602051 67.905014 67.905014 0 0 0-7.694536 0.292568l274.048369-165.300874 0.585136 0.877704A193.826246 193.826246 0 0 1 777.176833 7.619054z m146.020647 198.653616a208.805723 208.805723 0 0 1-72.469073 158.864379l-306.201583 184.317788a242.421777 242.421777 0 0 0-8.396699-235.224605c0-0.292568-0.204798-0.292568-0.292568-0.585136a171.737368 171.737368 0 0 0-17.554075-24.868273 100.409309 100.409309 0 0 0-6.231696-7.606766 229.402504 229.402504 0 0 0-40.228089-36.57099L822.378576 27.221104a207.723222 207.723222 0 0 1 100.818904 179.051566z m101.14073 209.771197l-345.230143 213.867148a220.186615 220.186615 0 0 0-90.871596-19.309483h-7.694536l274.048369-165.008305 0.585136 0.877703a190.87131 190.87131 0 0 1 169.16277-30.427063zM1170.358857 614.697483a208.805723 208.805723 0 0 1-72.469073 158.864379l-306.201583 184.317789a242.977656 242.977656 0 0 0-8.396699-235.517174s-0.204798-0.292568-0.292568-0.292568a192.363406 192.363406 0 0 0-17.554075-25.160841 95.230857 95.230857 0 0 0-6.231697-7.314198 231.128655 231.128655 0 0 0-40.228088-36.863558l350.554879-217.085395A207.255113 207.255113 0 0 1 1170.358857 614.697483z m-413.164413 233.176631a170.62561 170.62561 0 1 1-170.537839-176.125887 173.287978 173.287978 0 0 1 170.537839 176.125887z m0 0a170.62561 170.62561 0 1 1-170.537839-176.125887 173.287978 173.287978 0 0 1 170.537839 176.125887z m-416.031579 0a170.62561 170.62561 0 1 1-170.537839-176.125887 173.258721 173.258721 0 0 1 170.537839 176.125887z m0 0a170.62561 170.62561 0 1 1-170.537839-176.125887 173.258721 173.258721 0 0 1 170.537839 176.125887z" p-id="6795"></path></svg>