<?xml version="1.0" standalone="no"?><!DOCTYPE svg PUBLIC "-//W3C//DTD SVG 1.1//EN" "http://www.w3.org/Graphics/SVG/1.1/DTD/svg11.dtd"><svg t="1571817059454" class="icon" viewBox="0 0 1024 1024" version="1.1" xmlns="http://www.w3.org/2000/svg" p-id="44910" xmlns:xlink="http://www.w3.org/1999/xlink" width="200" height="200"><defs><style type="text/css"></style></defs><path d="M220 402.4h229.6V172.8H220v229.6z m-45.6-229.6c0-25.6 20-45.6 45.6-46.4h230.4c25.6 0 45.6 20 46.4 45.6v230.4c0 25.6-20 45.6-45.6 46.4H220c-25.6 0-45.6-20-46.4-45.6V172.8z m500-25.6c17.6-17.6 46.4-17.6 64 0l130.4 130.4c17.6 17.6 17.6 46.4 0 64.8L738.4 473.6c-17.6 17.6-46.4 17.6-64.8 0L543.2 342.4c-17.6-17.6-17.6-46.4 0-64.8l131.2-130.4zM576 310.4l130.4 130.4 130.4-130.4-130.4-130.4L576 310.4z m-20.8 260c0-25.6 20-45.6 45.6-46.4h230.4c25.6 0 45.6 20 46.4 45.6V800c0 25.6-20 45.6-45.6 46.4H601.6c-25.6 0-45.6-20-46.4-45.6V570.4z m46.4 229.6h229.6V570.4H601.6c-0.8-0.8 0 229.6 0 229.6zM174.4 570.4c0-25.6 20-45.6 45.6-46.4h230.4c25.6 0 45.6 20 46.4 45.6V800c0 25.6-20 45.6-45.6 46.4H220c-25.6 0-45.6-20-46.4-45.6V570.4z m45.6 229.6h229.6V570.4H220V800z" fill="" p-id="44911"></path></svg>