<?xml version="1.0" standalone="no"?><!DOCTYPE svg PUBLIC "-//W3C//DTD SVG 1.1//EN" "http://www.w3.org/Graphics/SVG/1.1/DTD/svg11.dtd"><svg t="1572160594937" class="icon" viewBox="0 0 1779 1024" version="1.1" xmlns="http://www.w3.org/2000/svg" p-id="20633" xmlns:xlink="http://www.w3.org/1999/xlink" width="521.19140625" height="300"><defs><style type="text/css"></style></defs><path d="M1288.111 315.317v-2.475c0-5.864-1.694-11.466-4.56-16.418-1.303-84.823-48.47-159.613-119.352-211.731C1092.145 31.662 995.074 0 888.361 0 781.78 0.13 684.578 31.662 612.524 84.693 541.773 136.68 494.605 211.6 493.172 296.424c-2.866 4.952-4.56 10.554-4.56 16.418V856.96c0 6.254 1.824 12.508 5.212 17.85 17.72 51.598 69.317 83.65 133.814 108.277 70.23 25.799 161.047 40.783 260.723 40.913 99.677-0.13 190.494-15.114 260.724-40.913 64.496-24.626 115.963-56.549 133.814-108.276 3.388-5.212 5.212-11.467 5.212-17.851V317.01c0.13-0.52 0.13-1.172 0-1.694zM913.769 598.321c2.867 32.184 4.04 60.197 4.04 84.302 0.13 71.403-11.336 109.45-22.412 127.17-11.335 17.46-19.414 17.46-25.147 17.98-1.824 0-3.388-0.26-4.3-0.52-0.39 0-0.651-0.131-0.781-0.131l-4.56-1.173c-4.17 0-12.118-5.602-20.066-22.671-23.975-50.164-28.144-166.128-27.754-210.95 0-12.118 0.261-19.154 0.261-19.154l-0.13-2.345c-0.912-9.772-2.346-23.584-8.079-37.265-5.081-13.29-18.632-29.577-39.87-30.88-1.043-0.13-2.346-0.13-3.258-0.13-21.629 0.39-35.57 13.16-46.385 23.583-10.685 10.815-19.805 21.63-24.887 25.017-10.293 7.557-22.672 13.03-30.75 12.77-3.127 0-5.603-0.522-8.339-1.825-11.205-3.648-26.32-33.877-31.923-54.985-7.166-22.672-10.684-50.295-22.671-77.787-3.648-8.209-7.557-16.417-11.466-24.496 70.36 32.183 179.157 50.816 303.2 51.207 101.892 0 194.011-13.29 262.417-35.441 8.73-2.866 17.069-5.863 24.886-8.99-10.163 20.456-16.678 42.346-21.108 62.151-7.427 34.138-8.469 62.673-8.6 68.666-2.214 30.88-8.73 65.148-24.365 86.256-8.339 11.857-24.365 20.978-35.31 20.587-6.645-0.13-11.596-1.824-17.46-8.078-5.733-5.733-8.99-18.632-8.99-32.704-0.521-38.568-8.86-64.367-23.323-81.305-14.463-17.07-34.008-21.76-47.298-21.63-9.902 0-17.33 2.085-20.717 3.127-23.975 6.255-39.48 22.672-46.776 38.568-7.427 15.896-8.6 31.141-8.6 40.653 0 5.602 0.39 9.381 0.521 10.423z m304.242-279.876h4.43v19.023c-2.996 3.518-6.905 7.166-11.987 11.075-47.167 37.395-174.727 68.406-321.962 67.885-98.374 0-187.367-13.03-250.17-33.487-31.401-10.163-56.157-22.28-71.663-34.398-5.081-3.909-8.99-7.687-11.987-11.075v-19.023h4.43c-0.26-1.564 1.303-8.6 15.636-19.675 20.717-16.287 63.324-34.008 118.309-45.865 55.115-12.117 122.74-19.414 195.575-19.414 97.201 0 185.151 13.03 246.13 32.965 30.49 9.773 54.073 21.63 67.754 32.314 14.072 11.075 15.766 18.241 15.505 19.675zM651.613 137.723C710.767 94.074 794.808 65.8 888.36 65.93c93.553 0 177.725 28.144 236.75 71.924 32.573 24.105 57.2 52.249 72.965 82.738-28.274-13.03-61.76-23.323-99.937-31.923-60.588-13.29-132.512-20.847-209.778-20.847-103.064 0-196.226 13.42-266.456 36.092a394.04 394.04 0 0 0-43.258 16.939c15.635-30.75 40.392-58.894 72.966-83.13z" fill="#ffffff" p-id="20634"></path></svg>