<?xml version="1.0" standalone="no"?><!DOCTYPE svg PUBLIC "-//W3C//DTD SVG 1.1//EN" "http://www.w3.org/Graphics/SVG/1.1/DTD/svg11.dtd"><svg t="1571798332593" class="icon" viewBox="0 0 1024 1024" version="1.1" xmlns="http://www.w3.org/2000/svg" p-id="13884" xmlns:xlink="http://www.w3.org/1999/xlink" width="200" height="200"><defs><style type="text/css"></style></defs><path d="M1002.179108 483.802516L775.205499 380.666036l227.017622-104.002063c24.427061-11.193902 24.441732-45.890599 0-57.084501L529.907926 2.934181a31.410413 31.410413 0 0 0-25.835468-0.161379L22.17716 216.425227c-24.73515 10.973839-24.940543 46.022637-0.308089 57.216539l231.301527 105.630534-230.993438 101.375971c-24.73515 10.973839-24.940543 46.022637-0.308089 57.216539l230.582653 105.24909-230.333248 101.067882c-24.73515 10.973839-24.940543 46.022637-0.308089 57.216539l481.205765 219.667498a31.454426 31.454426 0 0 0 26.114216 0l472.916702-216.689304c24.427061-11.179231 24.441732-45.875928 0-57.06983l-226.210722-102.725694 226.313419-103.693974c24.427061-11.193902 24.441732-45.890599 0.029341-57.084501z m-485.607037-404.770337L884.899874 248.085045 516.410691 415.186682 140.732763 245.693687z m169.771741 607.06748l198.057251 89.991346L516.117273 944.806441 141.187561 773.714318l201.475573-88.43623 50.717327 22.211754 109.738388 50.086478a31.454426 31.454426 0 0 0 26.114215 0l93.262959-42.736353z m-169.933121-7.335454l-375.22313-168.715436 201.475573-88.43623 85.091263 37.264105 75.379123 34.403278a31.454426 31.454426 0 0 0 26.114215 0l26.789077-12.279549 0.718875-0.220064 3.858448-1.745838 125.729677-56.512336 198.057251 89.991347z" fill="#2c2c2c" p-id="13885"></path></svg>