<?xml version="1.0" standalone="no"?><!DOCTYPE svg PUBLIC "-//W3C//DTD SVG 1.1//EN" "http://www.w3.org/Graphics/SVG/1.1/DTD/svg11.dtd"><svg t="1571814825968" class="icon" viewBox="0 0 1040 1024" version="1.1" xmlns="http://www.w3.org/2000/svg" p-id="43472" xmlns:xlink="http://www.w3.org/1999/xlink" width="203.125" height="200"><defs><style type="text/css"></style></defs><path d="M1023.957021 141.652184 1023.957021 141.652184 1023.957021 141.652184l-20.47738 0 0 0L381.948015 141.652184l-23.802102 0-12.135388 20.47738L0.167822 736.956472l-0.070608 0 0 20.47738 0 102.385878 0 20.47738 20.47738 0 982.90607 0 20.47738 0 0-20.47738L1023.958044 757.433852l0-20.47738L1023.958044 162.128541l0 0L1023.958044 141.652184zM1003.479641 859.81973 20.573571 859.81973 20.573571 757.433852l982.90607 0L1003.479641 859.81973zM1003.479641 736.956472 24.063045 736.956472l345.750605-574.827931 633.66599 0L1003.479641 736.956472z" p-id="43473"></path></svg>