<?xml version="1.0" standalone="no"?><!DOCTYPE svg PUBLIC "-//W3C//DTD SVG 1.1//EN" "http://www.w3.org/Graphics/SVG/1.1/DTD/svg11.dtd"><svg t="1571815758999" class="icon" viewBox="0 0 1280 1024" version="1.1" xmlns="http://www.w3.org/2000/svg" p-id="43941" xmlns:xlink="http://www.w3.org/1999/xlink" width="250" height="200"><defs><style type="text/css"></style></defs><path d="M1144.639727 396.548407C1144.639727 177.896716 966.743011 0 748.09132 0c-17.377121 0-34.504212 1.125137-51.256257 3.250397l-120.639727 7.750946v0.25003C366.294714 14.50177 196.398974 185.897693 196.398974 396.548407c0 142.017336 77.134416 266.282505 191.77341 333.040654-210.775729 28.253449-245.029911 172.271029-246.530094 178.771823l-5.375656 24.502991 256.531315 91.136125 5.00061-34.254181c15.876938-107.763155 283.659626-182.647296 376.921011-197.524112 206.27518-13.751679 369.920156-186.022708 369.920157-395.6733z m-895.484313 0c0-164.145037 119.514589-300.911732 276.158711-327.915029-104.762788 71.383714-173.771212 191.77341-173.771212 327.915029s69.008424 256.4063 173.771212 327.915028c-156.644122-26.878281-276.158711-163.769991-276.158711-327.915028z m101.762423 552.192406l-144.392626-51.256257c19.502381-37.879624 76.259309-108.513246 228.652911-115.26407 1.750214 0.125015 48.255891-2.875351 159.644488 3.125381-94.636552 32.253937-211.400806 88.63582-243.904773 163.394946z m424.051764-210.900745c-31.1288-1.500183-59.507264-2.750336-85.385423-4.000488-161.019656-27.753388-283.909657-168.395556-283.909657-337.291173 0-188.773044 153.51874-342.291784 342.291783-342.291784s342.291784 153.51874 342.291784 342.291784c0.125015 179.64693-139.01697 327.539983-315.288487 341.291661z" fill="" p-id="43942"></path><path d="M748.09132 250.530582c-80.509828 0-146.017824 65.507997-146.017825 146.14284 0 80.509828 65.507997 146.017824 146.017825 146.017824s146.017824-65.507997 146.017824-146.017824c0-80.634843-65.507997-146.14284-146.017824-146.14284z m0 239.404224c-51.506287 0-93.3864-41.880112-93.3864-93.386399s41.880112-93.3864 93.3864-93.3864 93.3864 41.880112 93.386399 93.3864c-0.125015 51.506287-42.005128 93.3864-93.386399 93.386399z" fill="" p-id="43943"></path></svg>