<?xml version="1.0" standalone="no"?><!DOCTYPE svg PUBLIC "-//W3C//DTD SVG 1.1//EN" "http://www.w3.org/Graphics/SVG/1.1/DTD/svg11.dtd"><svg t="1571226201763" class="icon" viewBox="0 0 1024 1024" version="1.1" xmlns="http://www.w3.org/2000/svg" p-id="7951" xmlns:xlink="http://www.w3.org/1999/xlink" width="300" height="300"><defs><style type="text/css"></style></defs><path d="M424.96 53.12c0 0 212.096 8 290.688 116.096 99.712 126.656 113.92 248.832 113.92 356.992 0 0 0 255.872-122.624 367.296-102.336 89.6-268.096 97.664-268.096 97.664s265.088-53.632 254.272-476.096C692.992 515.072 718.72 134.272 424.96 53.12zM900.288 601.536l117.056 0.704c0 0-83.456 333.888-293.312 333.888C814.208 887.232 900.288 760.192 900.288 601.536zM327.744 61.376c-174.272 0-315.648 193.728-315.648 464.576 0 270.656 131.712 465.856 305.984 465.856s325.248-195.008 325.248-465.856C643.328 255.168 501.952 61.376 327.744 61.376zM327.808 915.008c-148.416 0-258.496-166.464-258.496-388.16 0-221.696 110.08-381.568 258.496-381.568 148.352 0 260.032 159.936 260.032 381.568C587.84 748.544 476.16 915.008 327.808 915.008zM327.744 195.392c-120.64 0-218.752 148.288-218.752 330.624s98.112 330.688 218.752 330.688S546.56 708.288 546.56 526.016 448.384 195.392 327.744 195.392zM327.744 788.096c-74.816 0-163.2-87.68-163.2-262.08 0-169.216 88.384-262.144 163.2-262.144 74.944 0 163.264 88.128 163.264 262.144C490.944 705.344 402.56 788.096 327.744 788.096zM327.744 346.112c-65.664 0-119.04 80.704-119.04 179.904s53.44 179.968 119.04 179.968S446.784 625.28 446.784 526.016 393.408 346.112 327.744 346.112zM327.744 632.512c-30.464 0-66.304-35.584-66.304-106.496 0-68.736 35.904-106.496 66.304-106.496s66.304 35.84 66.304 106.496C393.984 598.784 358.144 632.512 327.744 632.512z" p-id="7952"></path></svg>