<?xml version="1.0" standalone="no"?><!DOCTYPE svg PUBLIC "-//W3C//DTD SVG 1.1//EN" "http://www.w3.org/Graphics/SVG/1.1/DTD/svg11.dtd"><svg t="1570847301349" class="icon" viewBox="0 0 1024 1024" version="1.1" xmlns="http://www.w3.org/2000/svg" p-id="6185" xmlns:xlink="http://www.w3.org/1999/xlink" width="200" height="200"><defs><style type="text/css"></style></defs><path d="M728.746667 170.666667c-35.84-58.026667-34.133333-59.733333-34.133334-59.733334s-122.88 34.133333-145.066666-81.92H477.866667s-18.773333 116.053333-145.066667 81.92c-35.84 59.733333-37.546667 61.44-37.546667 61.44s97.28 68.266667 0 160.426667l37.546667 61.44s107.52-46.08 143.36 80.213333h71.68c5.12-30.72 25.6-59.733333 52.906667-75.093333 27.306667-15.36 61.44-18.773333 90.453333-6.826667 34.133333-58.026667 35.84-59.733333 35.84-59.733333s-90.453333-78.506667 1.706667-162.133333zM512 332.8c-46.08 0-81.92-37.546667-81.92-81.92 0-46.08 37.546667-81.92 81.92-81.92 46.08 0 81.92 37.546667 81.92 81.92 0 46.08-37.546667 81.92-81.92 81.92z" p-id="6186" fill="#ffffff"></path><path d="M872.106667 256H733.866667l34.133333 85.333333h76.8l78.506667 213.333334H725.333333l-95.573333 85.333333H394.24l-95.573333-85.333333H98.986667L179.2 341.333333H256l34.133333-85.333333H153.6c-13.653333 0-25.6 8.533333-30.72 20.48L0 554.666667V904.533333c0 18.773333 15.36 34.133333 34.133333 34.133334h955.733334c18.773333 0 34.133333-15.36 34.133333-34.133334V554.666667l-121.173333-278.186667c-5.12-11.946667-17.066667-20.48-30.72-20.48z" p-id="6187" fill="#ffffff"></path></svg>