<?xml version="1.0" standalone="no"?><!DOCTYPE svg PUBLIC "-//W3C//DTD SVG 1.1//EN" "http://www.w3.org/Graphics/SVG/1.1/DTD/svg11.dtd"><svg t="1572160419241" class="icon" viewBox="0 0 1024 1024" version="1.1" xmlns="http://www.w3.org/2000/svg" p-id="12494" xmlns:xlink="http://www.w3.org/1999/xlink" width="300" height="300"><defs><style type="text/css"></style></defs><path d="M876.110769 939.913846c31.310769 31.507692 50.609231 9.058462 76.406154-16.541538s48.049231-45.095385 16.738462-76.603077c0 0-437.169231-436.775385-545.28-544.492308l-93.144616 93.144615z m0 0M157.538462 471.236923l36.430769-35.643077s-16.738462-43.913846 6.892307-64.787692 63.212308-8.073846 63.212308-8.073846l127.212308-123.076923s-8.861538-64 2.953846-75.815385 143.753846-76.209231 157.538462-89.009231l-28.16-27.175384s-184.713846 22.252308-204.8 42.338461c-11.815385 11.815385-99.643077 100.627692-162.461539 163.249231 0 0 15.753846 44.898462-4.923077 65.575385s-67.347692 5.907692-67.347692 5.907692L47.261538 361.550769c-15.556923 15.556923-6.301538 37.612308 12.603077 56.516923l40.566154 40.566154c19.692308 19.692308 41.353846 28.16 56.713846 12.603077z m0 0M728.615385 382.621538a170.929231 170.929231 0 0 0 244.381538-181.366153l-89.796923 89.796923-76.406154 19.692307-86.449231-85.070769 19.692308-78.769231 89.009231-88.024615a177.230769 177.230769 0 0 0-151.630769 43.716923 175.852308 175.852308 0 0 0-29.932308 198.301539l-59.076923 59.076923 81.92 81.723077z m0 0M475.175385 654.769231l-88.812308-89.009231-73.846154 73.846154-3.347692 3.544615a82.510769 82.510769 0 0 0-10.830769 15.753846 25.403077 25.403077 0 0 0-8.664616-1.181538 145.92 145.92 0 1 0-46.670769 283.372308 146.707692 146.707692 0 0 0 147.692308-145.723077A144.935385 144.935385 0 0 0 382.030769 748.307692a19.692308 19.692308 0 0 0-1.181538-4.923077 51.987692 51.987692 0 0 0 17.132307-11.027692zM243.003077 880.246154a85.070769 85.070769 0 1 1 86.843077-84.873846 85.858462 85.858462 0 0 1-86.843077 84.873846z m0 0" p-id="12495" fill="#ffffff"></path></svg>