<?xml version="1.0" standalone="no"?><!DOCTYPE svg PUBLIC "-//W3C//DTD SVG 1.1//EN" "http://www.w3.org/Graphics/SVG/1.1/DTD/svg11.dtd"><svg t="1572160380956" class="icon" viewBox="0 0 1024 1024" version="1.1" xmlns="http://www.w3.org/2000/svg" p-id="11312" xmlns:xlink="http://www.w3.org/1999/xlink" width="300" height="300"><defs><style type="text/css"></style></defs><path d="M585.6 726.4c182.4 0 332.8-150.4 332.8-332.8 0-76.8-25.6-147.2-70.4-204.8-60.8-76.8-153.6-128-262.4-128-96 0-182.4 41.6-243.2 105.6-54.4 60.8-89.6 137.6-89.6 224 0 185.6 150.4 336 332.8 336z m0-64c-147.2 0-268.8-121.6-268.8-268.8 0-57.6 19.2-112 51.2-156.8l64 60.8c-16 28.8-28.8 60.8-28.8 96 0 99.2 83.2 182.4 182.4 182.4s182.4-83.2 182.4-182.4c0-25.6-6.4-51.2-16-73.6l67.2-60.8c22.4 38.4 35.2 86.4 35.2 134.4 0 147.2-121.6 268.8-268.8 268.8z m118.4-268.8c0 64-54.4 118.4-118.4 118.4s-118.4-54.4-118.4-118.4 54.4-118.4 118.4-118.4 118.4 54.4 118.4 118.4z m-150.4-179.2c-28.8 6.4-57.6 19.2-80 35.2L412.8 192c38.4-32 86.4-54.4 140.8-60.8v83.2z m224-6.4l-64 57.6c-25.6-25.6-60.8-44.8-96-51.2V128c64 9.6 118.4 38.4 160 80z" fill="#ffffff" p-id="11313"></path><path d="M883.2 633.6h-38.4c-9.6 0-19.2 6.4-25.6 12.8a324.704 324.704 0 0 1-569.6-73.6c-3.2-12.8-16-19.2-28.8-19.2h-12.8V313.6c0-19.2-12.8-32-32-32H76.8c-19.2 0-32 12.8-32 32s12.8 32 32 32h67.2v214.4c-38.4 12.8-64 48-64 89.6V864c0 54.4 41.6 96 96 96h710.4c54.4 0 96-41.6 96-96v-134.4c-3.2-54.4-44.8-96-99.2-96z m32 230.4c0 19.2-12.8 32-32 32H176c-19.2 0-32-12.8-32-32v-214.4c0-19.2 12.8-32 32-32h22.4c64 137.6 201.6 230.4 355.2 230.4 121.6 0 233.6-57.6 307.2-150.4h22.4c19.2 0 32 12.8 32 32V864z" fill="#ffffff" p-id="11314"></path><path d="M188.8 697.6m-32 0a32 32 0 1 0 64 0 32 32 0 1 0-64 0Z" fill="#ffffff" p-id="11315"></path><path d="M870.4 768m-32 0a32 32 0 1 0 64 0 32 32 0 1 0-64 0Z" fill="#ffffff" p-id="11316"></path></svg>