<?xml version="1.0" standalone="no"?><!DOCTYPE svg PUBLIC "-//W3C//DTD SVG 1.1//EN" "http://www.w3.org/Graphics/SVG/1.1/DTD/svg11.dtd"><svg t="1572159967417" class="icon" viewBox="0 0 1128 1024" version="1.1" xmlns="http://www.w3.org/2000/svg" p-id="9925" xmlns:xlink="http://www.w3.org/1999/xlink" width="330.46875" height="300"><defs><style type="text/css"></style></defs><path d="M276.579 283.603l190.751-50.926a36 36 0 0 0 25.024-43.901 35.78 35.78 0 0 0-43.901-25.024L257.7 214.678a35.78 35.78 0 0 0 18.878 68.925z m31.39 117.217l190.75-50.926a35.78 35.78 0 0 0-18.877-68.925l-190.751 50.926a36.219 36.219 0 0 0-25.024 43.9 35.78 35.78 0 0 0 43.901 25.025z m0 0" p-id="9926" fill="#ffffff"></path><path d="M686.618 361.528L600.79 40.17a55.316 55.316 0 0 0-65.853-38.633L102.071 118.095a53.34 53.34 0 0 0-37.755 65.852l65.852 244.311m498.72-6.146l-424.308 6.146-65.852-245.19L536.256 75.95z m298.31-8.56l43.9-165.729 19.317-68.925 34.902 9-27.877 103.827a35.845 35.845 0 0 0 69.144 18.877l36.658-138.948a35.121 35.121 0 0 0-26.121-43.9l-69.145-18A71.779 71.779 0 0 0 957.05 21.95L888.125 3.293a71.56 71.56 0 0 0-87.803 50.925l-36.657 138.948L712.3 385.674l-8.56 31.39m87.802-50.926l23.268-87.803 68.925 18.877-23.268 86.706z m41.267-155.85l36.439-137.85 68.925 18.657-35.56 138.729z m0 0" p-id="9927" fill="#ffffff"></path><path d="M1074.267 361.528H53.56A53.78 53.78 0 0 0 0 415.308v107.338a53.999 53.999 0 0 0 53.56 53.78h27V916.66A107.558 107.558 0 0 0 187.897 1024h752.03a107.778 107.778 0 0 0 107.56-107.339V576.425h26.78a54.218 54.218 0 0 0 53.778-53.779V415.307a53.78 53.78 0 0 0-53.779-53.779z m-98.339 439.014H761.031v-71.998h214.897z m0-143.338H743.031a53.999 53.999 0 0 0-53.78 53.78v107.338a54.218 54.218 0 0 0 53.78 53.78h232.897v43.9a36.219 36.219 0 0 1-36 35.78h-752.03a35.78 35.78 0 0 1-35.78-35.78V576.426h823.81z m80.34-152.338H71.559v-71.779h984.709z m0 0" p-id="9928" fill="#ffffff"></path></svg>